<svg width="90" height="33" viewBox="0 0 90 33" fill="none" xmlns="http://www.w3.org/2000/svg">
<mask id="mask0" maskUnits="userSpaceOnUse" x="1" y="0" width="89" height="33">
<mask id="mask1" maskUnits="userSpaceOnUse" x="0" y="0" width="90" height="33">
<rect width="90" height="33" rx="8" fill="#1A1F34"/>
</mask>
<g mask="url(#mask1)">
<path d="M1 20.1627C1 27.2776 20.6971 33.0404 44.997 33.0404C69.2969 33.0404 88.994 27.2776 88.994 20.1627V12.8779H1V20.1627Z" fill="#E7AF1E"/>
<g style="mix-blend-mode:color-burn">
<path d="M6.12005 12.8779H1V20.1627C1 22.3423 2.85445 24.3962 6.12005 26.1989V12.8779Z" fill="#CBCBCB"/>
</g>
<g style="mix-blend-mode:color-burn">
<path d="M9.46084 12.8779H7.89453V27.0855C8.38954 27.3146 8.91411 27.5362 9.46084 27.7579V12.8779Z" fill="#CBCBCB"/>
</g>
<g style="mix-blend-mode:color-burn">
<path d="M39.1313 12.8262H29.9551V32.2203C32.8808 32.5306 35.9543 32.7523 39.1313 32.8779V12.8262Z" fill="#CBCBCB"/>
</g>
<g style="mix-blend-mode:color-burn">
<path d="M65.1001 12.8262H40.4824V32.9222C41.9527 32.9665 43.4377 32.9887 44.9449 32.9887C52.2076 32.9887 59.0639 32.4715 65.1001 31.5628V12.8262Z" fill="#CBCBCB"/>
</g>
<g style="mix-blend-mode:color-burn">
<path d="M69.4302 12.8779H66.6152V31.3781C67.5757 31.2229 68.514 31.0456 69.4302 30.8683V12.8779Z" fill="#CBCBCB"/>
</g>
<g style="mix-blend-mode:color-burn">
<path d="M74.7486 12.8779H70.5742V30.6393C72.0371 30.3363 73.4261 30.0039 74.7486 29.6492V12.8779Z" fill="#CBCBCB"/>
</g>
<g style="mix-blend-mode:color-burn">
<path d="M84.0342 12.8779H75.582V29.4202C78.9658 28.4597 81.8325 27.3441 84.0342 26.1103V12.8779Z" fill="#CBCBCB"/>
</g>
<g style="mix-blend-mode:color-burn">
<path d="M85.8086 12.8779V24.9873C87.8625 23.5022 89.0003 21.8694 89.0003 20.1627V12.8779H85.8086Z" fill="#CBCBCB"/>
</g>
<g style="mix-blend-mode:color-burn">
<path d="M28.5973 12.8262H15.5645V29.6935C19.3694 30.6909 23.7802 31.5036 28.6047 32.0652V12.8262H28.5973Z" fill="#CBCBCB"/>
</g>
<g style="mix-blend-mode:color-burn">
<path d="M13.3688 12.8262H10.0293V27.9499C11.0637 28.3415 12.1867 28.7183 13.3688 29.0803V12.8262Z" fill="#CBCBCB"/>
</g>
<path d="M88.994 12.8777C88.994 19.9926 69.2969 25.7554 44.997 25.7554C20.6971 25.7554 1 19.9926 1 12.8777C1 5.76284 20.6971 0 44.997 0C69.2969 0 88.994 5.76284 88.994 12.8777Z" fill="#BD8936"/>
<path d="M85.9371 12.8773C85.9371 19.4972 67.6068 24.861 44.9988 24.861C22.3908 24.861 4.06055 19.4972 4.06055 12.8773C4.06055 6.25742 22.3908 0.893555 44.9988 0.893555C67.6142 0.893555 85.9371 6.25742 85.9371 12.8773Z" fill="#E7B142"/>
<path d="M78.7092 12.878C78.7092 18.3305 63.615 22.7413 45.004 22.7413C26.3856 22.7413 11.2988 18.3231 11.2988 12.878C11.2988 7.43283 26.393 3.01466 45.004 3.01466C63.615 3.00727 78.7092 7.42544 78.7092 12.878Z" fill="#F2CD45"/>
<path d="M75.4675 12.8786C75.4675 17.8065 61.8288 21.7962 44.9984 21.7962C28.168 21.7962 14.5293 17.8065 14.5293 12.8786C14.5293 7.9506 28.168 3.96094 44.9984 3.96094C61.8288 3.96094 75.4675 7.9506 75.4675 12.8786Z" fill="#FDE847"/>
<path d="M57.0189 12.922C55.0093 12.2866 53.5981 12.0797 49.9705 11.6216V9.43473C50.9383 9.55295 51.9875 9.75982 53.2139 10.1366L54.7655 10.6168L59.7156 8.62202L58.6517 8.28955C57.5878 7.95708 54.6546 7.3808 49.9631 7.14437V5.86621H43.5944V7.11483C41.7326 7.18132 39.3092 7.35124 37.1888 7.8832C33.672 8.75501 33.672 9.86325 33.672 10.2327C33.672 11.0601 35.2531 11.9763 37.6986 12.5674C39.5752 13.018 41.3336 13.2618 43.5501 13.5204V16.2762C41.7178 16.0915 40.0924 15.6778 38.2897 15.2123L36.5608 14.769L32.416 16.9043L33.6425 17.1998C37.6173 18.1529 40.1072 18.4114 43.6018 18.537V20.4432H49.9705V18.5001C52.7559 18.3745 55.0536 18.0346 56.812 17.4879C58.8512 16.8599 59.8486 16.0915 59.8486 15.1385C59.8486 14.2297 58.9176 13.5057 57.0189 12.922ZM41.6513 9.95191C41.6513 9.56772 42.4936 9.37563 43.5575 9.29436V10.8533C42.5527 10.6612 41.6513 10.373 41.6513 9.95191ZM52.0244 15.3084C52.0244 15.7147 51.2265 16.062 49.9705 16.2467V14.3257C50.2069 14.3701 50.4212 14.407 50.5985 14.444C51.5072 14.6287 52.0244 14.939 52.0244 15.3084Z" fill="#C7B525"/>
<path d="M55.6215 12.6485C53.6119 12.0131 52.2008 11.8063 48.5732 11.3482V9.1613C49.541 9.27951 50.5901 9.48638 51.8166 9.86318L53.3681 10.3434L58.3182 8.34859L57.2543 8.01612C56.1904 7.68365 53.2573 7.10736 48.5658 6.87094V5.59277H42.1971V6.84139C40.3353 6.90788 37.9193 7.07781 35.7915 7.60976C32.2747 8.48157 32.2747 9.58981 32.2747 9.95183C32.2747 10.7793 33.8484 11.6955 36.2939 12.2865C38.1705 12.7372 39.9289 12.981 42.1454 13.2396V15.9954C40.3131 15.8107 38.6877 15.397 36.8776 14.9315L35.1487 14.4882L31.0039 16.6234L32.223 16.919C36.1978 17.872 38.6877 18.1306 42.1823 18.2488V20.155H48.551V18.2119C51.3364 18.0863 53.6341 17.7464 55.3925 17.1997C57.4317 16.5717 58.4291 15.8033 58.4291 14.8502C58.4438 13.9563 57.5203 13.2396 55.6215 12.6485ZM40.2466 9.67847C40.2466 9.29428 41.0962 9.10219 42.1528 9.02092V10.5798C41.148 10.3877 40.2466 10.0996 40.2466 9.67847ZM50.6271 15.0349C50.6271 15.4413 49.8292 15.7885 48.5732 15.9732V14.0523C48.8096 14.0893 49.0238 14.1336 49.2011 14.1705C50.1025 14.3552 50.6271 14.6729 50.6271 15.0349Z" fill="#E7B142"/>
<path d="M44.082 6.13867H46.6975V7.34296C52.1204 7.51289 55.1718 8.16305 55.8958 8.39209L53.1843 9.48555C50.6206 8.695 48.5888 8.55463 46.6975 8.43642V11.7094C51.0565 12.2635 52.3125 12.4187 54.2482 13.0245C55.9401 13.5491 56.5755 14.1549 56.5755 14.8494C56.5755 15.5882 55.8958 16.2532 54.0561 16.8221C52.1204 17.4279 49.505 17.6865 46.6975 17.716V19.6148H44.082V17.7604C40.0185 17.6643 37.7429 17.5313 33.4355 16.497L35.6594 15.3518C38.2748 16.0168 40.6908 16.63 44.0303 16.6522V12.8694C41.2228 12.5443 39.4348 12.33 37.4991 11.8646C35.5116 11.3843 34.1596 10.6307 34.1596 9.95101C34.1596 9.61115 34.1596 8.73195 37.0189 8.02268C39.4422 7.41684 42.3458 7.37251 44.0894 7.34296V6.13867H44.082ZM44.0303 8.40687C41.2228 8.40687 38.3635 8.73195 38.3635 9.68503C38.3635 10.6233 41.1193 11.1848 44.0303 11.4139V8.40687ZM46.6975 16.6669C49.9409 16.6226 52.5046 15.9577 52.5046 15.0341C52.5046 14.5096 51.7288 14.0145 50.2807 13.719C49.4089 13.5343 47.6653 13.2683 46.6975 13.1944V16.6669Z" fill="#FDE847"/>
</g>
</mask>
<g mask="url(#mask0)">
<g style="mix-blend-mode:color" opacity="0.8">
<path d="M1 -101.036C1 -101.036 13.4 -112 45 -112C76.6 -112 89 -101.036 89 -101.036V34H1V-101.036Z" fill="#F5433D"/>
</g>
<g style="mix-blend-mode:overlay" opacity="0.8">
<path d="M1 -101.036C1 -101.036 13.4 -112 45 -112C76.6 -112 89 -101.036 89 -101.036V34H1V-101.036Z" fill="#F5433D"/>
</g>
</g>
</svg>
