<svg width="31" height="30" viewBox="0 0 31 30" fill="none" xmlns="http://www.w3.org/2000/svg">
<g filter="url(#filter0_d)">
<path d="M4 15C4 8.92529 8.92671 4 15.0014 4C21.0761 4 26.0014 8.92529 26.0014 15C26.0014 21.0747 21.0761 26 15.0014 26C8.92671 26 4 21.0761 4 15Z" fill="url(#paint0_linear)"/>
<path d="M4 15C4 8.92529 8.92671 4 15.0014 4C21.0761 4 26.0014 8.92529 26.0014 15C26.0014 21.0747 21.0761 26 15.0014 26C8.92671 26 4 21.0761 4 15Z" fill="#E7BF51"/>
<path d="M15.0014 26C21.0761 26 26.0014 21.0747 26.0014 15C26.0014 8.92529 21.0761 4 15.0014 4C8.92671 4 4 8.92529 4 15C4 21.0761 8.92671 26 15.0014 26ZM15.0014 4.1638C20.9764 4.1638 25.8376 9.02499 25.8376 15C25.8376 20.975 20.9764 25.8362 15.0014 25.8362C9.02499 25.8362 4.16522 20.975 4.16522 15C4.16522 9.02499 9.02499 4.1638 15.0014 4.1638Z" fill="url(#paint1_linear)"/>
<path d="M14.9673 23.086C19.4112 23.086 23.0147 19.4839 23.0147 15.0386C23.0147 10.5961 19.4112 6.99121 14.9673 6.99121C10.5234 6.99121 6.91992 10.5947 6.91992 15.0386C6.92131 19.4839 10.5234 23.086 14.9673 23.086ZM14.9673 7.15235C19.3154 7.15235 22.855 10.6919 22.855 15.04C22.855 19.3881 19.3154 22.9276 14.9673 22.9276C10.6179 22.9276 7.07967 19.3881 7.07967 15.04C7.07967 10.6905 10.6179 7.15235 14.9673 7.15235Z" fill="url(#paint2_linear)"/>
<path d="M7.07812 15.0001C7.07812 10.6246 10.6261 7.07666 15.0016 7.07666C19.3771 7.07666 22.9251 10.6246 22.9251 15.0001C22.9251 19.3756 19.3771 22.9236 15.0016 22.9236C10.6261 22.9236 7.07812 19.3756 7.07812 15.0001Z" fill="url(#paint3_linear)"/>
<path d="M7.07812 15.0001C7.07812 10.6246 10.6261 7.07666 15.0016 7.07666C19.3771 7.07666 22.9251 10.6246 22.9251 15.0001C22.9251 19.3756 19.3771 22.9236 15.0016 22.9236C10.6261 22.9236 7.07812 19.3756 7.07812 15.0001Z" fill="#CF9B35"/>
<path d="M13.2709 23.4351L13.8776 23.5276C13.9574 23.539 14.03 23.5604 14.0941 23.5889C14.1582 23.6174 14.2123 23.6516 14.2551 23.69C14.2978 23.7299 14.3291 23.774 14.3491 23.8239C14.369 23.8737 14.3747 23.925 14.3662 23.9806C14.3605 24.0219 14.3491 24.0575 14.3362 24.0888C14.3234 24.1202 14.3035 24.1486 14.2778 24.1729C14.2522 24.1971 14.2209 24.2199 14.181 24.2384C14.1425 24.2569 14.0941 24.2768 14.0371 24.2939V24.2982C14.0898 24.3153 14.1354 24.3366 14.1767 24.3637C14.2166 24.3908 14.2508 24.4221 14.2764 24.4591C14.3021 24.4947 14.3206 24.5361 14.3305 24.5802C14.3405 24.6244 14.3419 24.6714 14.3348 24.7226C14.3263 24.7796 14.3049 24.8309 14.2736 24.8765C14.2408 24.922 14.1995 24.9605 14.1482 24.9904C14.097 25.0203 14.0371 25.0403 13.9688 25.0517C13.9004 25.063 13.8263 25.0616 13.7466 25.0502L13.043 24.9434L13.2709 23.4351ZM13.3122 24.8708L13.5856 24.9121C13.6583 24.9235 13.7238 24.9263 13.7808 24.9192C13.8363 24.9135 13.8847 24.9007 13.9246 24.8807C13.9631 24.8608 13.9944 24.8337 14.0172 24.801C14.04 24.7682 14.0542 24.7298 14.0599 24.687C14.067 24.64 14.0671 24.5944 14.0571 24.5503C14.0485 24.5061 14.0286 24.4677 13.9987 24.4321C13.9688 24.3965 13.9275 24.3666 13.8748 24.3409C13.8221 24.3153 13.7551 24.2968 13.6739 24.2839L13.4076 24.2441L13.3122 24.8708ZM13.4218 24.1529L13.7437 24.2013C13.7936 24.2085 13.8406 24.2085 13.8819 24.1999C13.9232 24.1914 13.9602 24.1771 13.9916 24.1558C14.0229 24.1344 14.0471 24.1073 14.0671 24.0746C14.087 24.0418 14.0998 24.0048 14.1055 23.9635C14.1126 23.9193 14.1098 23.878 14.0998 23.8396C14.0884 23.8011 14.0671 23.7655 14.0357 23.7356C14.0044 23.7043 13.9631 23.6786 13.9104 23.6558C13.8577 23.6345 13.795 23.6174 13.7181 23.606L13.5101 23.5746L13.4218 24.1529Z" fill="url(#paint4_linear)"/>
<path d="M16.3011 23.5874L16.3054 23.6857L15.7542 23.7085L15.814 25.1342L15.5576 25.1456L15.4964 23.7199L14.9437 23.7427L14.9395 23.6444L16.3011 23.5874Z" fill="url(#paint5_linear)"/>
<path d="M17.2826 24.1886C17.3097 24.2926 17.3496 24.3809 17.4023 24.4549C17.455 24.529 17.5162 24.586 17.5846 24.6287C17.6544 24.6714 17.7299 24.6971 17.8125 24.7085C17.8951 24.7184 17.9791 24.7127 18.066 24.6899C18.1173 24.6757 18.1643 24.6529 18.207 24.6202C18.2497 24.5874 18.2882 24.5489 18.3209 24.5062C18.3537 24.4635 18.3808 24.4179 18.4021 24.368C18.4235 24.3182 18.4392 24.2712 18.4491 24.2228L18.5702 24.2626C18.5531 24.3196 18.5303 24.3766 18.5004 24.4336C18.4705 24.4905 18.4335 24.5432 18.3893 24.5931C18.3452 24.6429 18.291 24.6871 18.2269 24.7256C18.1643 24.7654 18.0902 24.7953 18.0062 24.8181C17.925 24.8395 17.8466 24.8509 17.7683 24.8509C17.6914 24.8509 17.6188 24.8423 17.549 24.8253C17.4792 24.8082 17.4151 24.7811 17.3553 24.7469C17.2954 24.7127 17.2413 24.6714 17.1943 24.623C17.1459 24.5746 17.106 24.5205 17.0704 24.4606C17.0362 24.4008 17.0092 24.3353 16.9906 24.2669C16.9721 24.1986 16.9636 24.1288 16.965 24.059C16.9664 23.9892 16.975 23.9208 16.9935 23.8539C17.012 23.7884 17.0391 23.7243 17.0747 23.663C17.1103 23.6018 17.1544 23.5462 17.2057 23.4964C17.2584 23.4465 17.3182 23.4024 17.3852 23.3639C17.4535 23.3254 17.5276 23.2955 17.6102 23.2742C17.6886 23.2542 17.764 23.2443 17.8353 23.2485C17.9065 23.2528 17.9748 23.2642 18.0389 23.2856C18.103 23.3055 18.1614 23.334 18.217 23.3682C18.2711 23.4024 18.3209 23.4408 18.3637 23.4821L18.2754 23.5818C18.1814 23.4793 18.0902 23.4095 17.9991 23.3739C17.9079 23.3383 17.8139 23.3326 17.7142 23.3596C17.6287 23.3824 17.5532 23.4195 17.4877 23.4693C17.4222 23.5206 17.3695 23.5818 17.3296 23.6545C17.2897 23.7271 17.2655 23.8083 17.2556 23.8994C17.2456 23.9878 17.2556 24.0846 17.2826 24.1886Z" fill="url(#paint6_linear)"/>
<path d="M9.41602 6.29454L9.95298 5.99828C10.0242 5.9584 10.094 5.93134 10.1624 5.91425C10.2307 5.89716 10.2934 5.89146 10.3518 5.89716C10.4102 5.90285 10.4629 5.91852 10.5085 5.94558C10.554 5.97264 10.5911 6.0111 10.6181 6.05953C10.6381 6.09656 10.6523 6.13074 10.6609 6.1635C10.6694 6.19626 10.6708 6.23045 10.6666 6.26463C10.6609 6.29881 10.6495 6.33585 10.631 6.37573C10.611 6.41561 10.584 6.45834 10.5498 6.50819L10.5512 6.51246C10.6025 6.49394 10.6523 6.48255 10.7008 6.4797C10.7492 6.47685 10.7948 6.48113 10.8375 6.49394C10.8802 6.50676 10.9187 6.52813 10.9543 6.55661C10.9899 6.5851 11.0198 6.62213 11.044 6.66629C11.0711 6.71756 11.0867 6.77026 11.0896 6.82581C11.0924 6.88136 11.081 6.93833 11.0597 6.99246C11.0369 7.048 11.0013 7.1007 10.9543 7.15055C10.9073 7.20041 10.8475 7.24598 10.7762 7.28444L10.1538 7.62912L9.41602 6.29454ZM9.9715 6.77169L10.2578 6.61359C10.3019 6.58795 10.339 6.55946 10.3675 6.52813C10.3959 6.49537 10.4145 6.46119 10.4259 6.42558C10.4373 6.38997 10.4415 6.35294 10.4358 6.31591C10.4316 6.27887 10.4187 6.24184 10.3988 6.20481C10.3774 6.16635 10.3504 6.13502 10.3176 6.1108C10.2848 6.08659 10.2478 6.07235 10.2037 6.06665C10.1595 6.06095 10.1111 6.06523 10.0555 6.08089C10.0014 6.09514 9.94016 6.12077 9.87322 6.15781L9.68806 6.26036L9.9715 6.77169ZM10.3233 7.40836L10.5654 7.27447C10.631 7.23886 10.6837 7.20041 10.725 7.16195C10.7663 7.12349 10.7962 7.08361 10.8147 7.04373C10.8332 7.00385 10.8418 6.96397 10.8389 6.92409C10.8361 6.88421 10.8247 6.84575 10.8033 6.80729C10.7805 6.76599 10.752 6.73038 10.7178 6.70047C10.6837 6.67198 10.6452 6.65204 10.5996 6.64207C10.554 6.6321 10.5028 6.63353 10.4458 6.64635C10.3888 6.65774 10.3233 6.68338 10.2521 6.72326L10.0157 6.8543L10.3233 7.40836Z" fill="url(#paint7_linear)"/>
<path d="M11.0918 5.46123L11.3311 5.36865L11.8823 6.79155L11.643 6.88413L11.0918 5.46123Z" fill="url(#paint8_linear)"/>
<path d="M13.2255 4.83203L13.2483 4.92746L12.7114 5.05707L13.0446 6.44436L12.7954 6.50418L12.4621 5.11689L11.9251 5.24651L11.9023 5.15108L13.2255 4.83203Z" fill="url(#paint9_linear)"/>
<path d="M14.1747 5.49278C14.179 5.5996 14.1989 5.69503 14.2345 5.77907C14.2702 5.86168 14.3172 5.93289 14.3756 5.98844C14.4339 6.04541 14.5023 6.08814 14.5807 6.1152C14.659 6.14369 14.743 6.15651 14.8328 6.15224C14.8869 6.15081 14.9367 6.13799 14.9852 6.1152C15.0336 6.09242 15.0792 6.06393 15.1205 6.02832C15.1618 5.99414 15.1988 5.95426 15.2301 5.91153C15.2615 5.8688 15.2885 5.82464 15.3085 5.78049L15.4182 5.84601C15.3882 5.89871 15.3541 5.94856 15.3128 5.99841C15.2714 6.04826 15.2244 6.09099 15.1689 6.12945C15.1148 6.1679 15.0521 6.19924 14.9823 6.22345C14.9125 6.24767 14.8342 6.26191 14.7459 6.26476C14.6618 6.26761 14.5821 6.26048 14.508 6.24482C14.4325 6.22773 14.3642 6.20351 14.3001 6.17075C14.236 6.13942 14.179 6.09954 14.1277 6.05253C14.0764 6.00553 14.0323 5.95283 13.9967 5.89586C13.9611 5.83889 13.9326 5.77622 13.9112 5.7107C13.8899 5.64376 13.8785 5.57539 13.8756 5.50417C13.8728 5.43296 13.8799 5.36317 13.8956 5.2948C13.9112 5.22643 13.9354 5.16234 13.9682 5.10109C14.001 5.03985 14.0408 4.9843 14.0893 4.93302C14.1377 4.88175 14.1932 4.83759 14.2545 4.79914C14.3157 4.7621 14.3841 4.73077 14.4582 4.7094C14.5322 4.68661 14.612 4.6738 14.6974 4.67095C14.7786 4.6681 14.8527 4.67664 14.9225 4.69516C14.9909 4.7151 15.055 4.74074 15.1133 4.77492C15.1717 4.80911 15.223 4.84899 15.2686 4.89456C15.3142 4.94014 15.3541 4.98857 15.3868 5.03842L15.2786 5.11676C15.2102 4.99569 15.1347 4.90881 15.0535 4.85326C14.9723 4.79914 14.8812 4.7735 14.7786 4.77635C14.6903 4.7792 14.6091 4.79914 14.5337 4.83332C14.4582 4.8675 14.3926 4.91735 14.3385 4.9786C14.2844 5.04127 14.2417 5.11533 14.2118 5.20079C14.1833 5.2891 14.1704 5.38595 14.1747 5.49278Z" fill="url(#paint10_linear)"/>
<path d="M16.6456 6.42169C16.5687 6.40603 16.4961 6.38181 16.4291 6.34905C16.3622 6.3163 16.3009 6.27641 16.2468 6.22941C16.1927 6.18383 16.1457 6.13113 16.1044 6.07274C16.0645 6.01434 16.0317 5.95309 16.0075 5.88758C15.9847 5.82206 15.9691 5.75369 15.9634 5.68247C15.9577 5.61126 15.962 5.53862 15.9762 5.46598C15.9904 5.39476 16.0132 5.32782 16.046 5.26515C16.0787 5.20248 16.1172 5.14693 16.1642 5.09708C16.2112 5.04723 16.2639 5.00307 16.3237 4.96604C16.3836 4.92901 16.4462 4.8991 16.5132 4.87773C16.5801 4.85637 16.6513 4.84355 16.7268 4.83928C16.8009 4.83501 16.8778 4.8407 16.9547 4.85495C17.0316 4.87061 17.1043 4.89483 17.1712 4.92616C17.2381 4.95892 17.2994 4.99738 17.3535 5.04296C17.4076 5.08853 17.4546 5.13981 17.4959 5.19678C17.5372 5.25375 17.5686 5.31358 17.5928 5.37767C17.617 5.44176 17.6312 5.50871 17.6384 5.5785C17.6455 5.64829 17.6412 5.71951 17.627 5.79072C17.6127 5.86336 17.5899 5.93173 17.5572 5.9944C17.5244 6.05849 17.4845 6.11689 17.4375 6.16817C17.3905 6.21944 17.3378 6.26502 17.278 6.30348C17.2182 6.34193 17.1541 6.37184 17.0872 6.39463C17.0202 6.41742 16.949 6.43024 16.8735 6.43594C16.7995 6.44164 16.7225 6.43736 16.6456 6.42169ZM16.6599 6.34621C16.7453 6.3633 16.8237 6.36045 16.8977 6.33766C16.9704 6.31487 17.0359 6.27641 17.0929 6.22087C17.1498 6.16674 17.1997 6.09695 17.2396 6.01434C17.2809 5.93173 17.3108 5.83772 17.3307 5.73375C17.3507 5.6312 17.3578 5.53577 17.3521 5.44461C17.345 5.35488 17.3264 5.2737 17.2937 5.20248C17.2609 5.13126 17.2154 5.07287 17.1555 5.02586C17.0971 4.97886 17.0245 4.9461 16.939 4.92901C16.8522 4.91192 16.771 4.91477 16.6983 4.93471C16.6257 4.95607 16.5602 4.9931 16.5032 5.04723C16.4462 5.09993 16.3992 5.16687 16.3593 5.24806C16.3195 5.32924 16.2895 5.4204 16.2696 5.52295C16.2497 5.62693 16.2411 5.7252 16.2468 5.81636C16.2525 5.90894 16.271 5.99013 16.3024 6.06277C16.3337 6.13541 16.3793 6.19665 16.4391 6.24508C16.4989 6.29636 16.573 6.33054 16.6599 6.34621Z" fill="url(#paint11_linear)"/>
<path d="M18.4635 5.31445L18.7028 5.40561L18.1573 6.82993L17.918 6.73877L18.4635 5.31445Z" fill="url(#paint12_linear)"/>
<path d="M19.4307 5.70947L19.556 5.78069L19.8708 7.24489L19.8793 7.25058L20.4334 6.28347L20.5317 6.33902L19.7568 7.69497L19.7056 7.66506L19.3808 6.05131L19.3737 6.04704L18.7755 7.09248L18.6758 7.03551L19.4307 5.70947Z" fill="url(#paint13_linear)"/>
<path d="M14.6394 11.2412C14.6394 11.0076 14.6935 10.8523 14.8017 10.7768C14.91 10.7013 15.0524 10.6643 15.2276 10.6643H15.3786C15.8301 10.6643 16.1562 10.7811 16.3557 11.0147C16.5565 11.2483 16.6562 11.6328 16.6562 12.1684C16.6562 12.7281 16.5522 13.1355 16.3428 13.3905C16.1335 13.6454 15.7874 13.7722 15.3017 13.7722H14.6394V11.2412ZM16.6135 17.6905C16.2588 17.9953 15.8799 18.1477 15.4797 18.1477C15.2205 18.1477 15.0154 18.085 14.8658 17.9597C14.7148 17.8343 14.6408 17.6335 14.6408 17.3586V14.3747H15.5808C16.0993 14.3747 16.4895 14.5313 16.753 14.8447C17.0165 15.158 17.1476 15.6152 17.1476 16.2177C17.1461 16.8943 16.9681 17.3857 16.6135 17.6905ZM19.7284 16.3431C19.7284 15.7833 19.4778 15.2634 18.9764 14.782C18.475 14.3006 17.7486 14.0399 16.7958 13.9986C17.5977 13.8818 18.2073 13.6383 18.626 13.2708C19.0433 12.9033 19.2527 12.4817 19.2527 12.0046C19.2527 11.4277 18.9892 10.9577 18.4636 10.5945C17.978 10.2598 17.2174 10.0803 16.1904 10.0547V8.81982H14.9755V10.069C14.8744 10.0732 14.7732 10.0746 14.6707 10.0803C14.3459 10.096 14.0369 10.1046 13.7378 10.1074V8.81982H12.5228V10.0917C12.4217 10.0875 12.3234 10.086 12.2194 10.0803C11.785 10.0604 11.3634 10.049 10.9532 10.049C10.9276 10.049 10.9048 10.0832 10.8849 10.1501C10.8635 10.2171 10.8535 10.2755 10.8535 10.3253C10.8535 10.3666 10.8635 10.4208 10.8849 10.4877C10.9062 10.5546 10.929 10.5917 10.9532 10.6002C11.446 10.6586 11.7694 10.7626 11.9246 10.9136C12.0799 11.0631 12.1568 11.311 12.1568 11.6528V17.1549C12.1568 17.4982 12.0799 17.7432 11.9246 17.8941C11.7694 18.0451 11.446 18.1491 10.9532 18.2075C10.9276 18.216 10.9048 18.2531 10.8849 18.32C10.8635 18.387 10.8535 18.4411 10.8535 18.4824C10.8535 18.5322 10.8635 18.5906 10.8849 18.6576C10.9062 18.7245 10.929 18.7573 10.9532 18.7573C11.3634 18.7573 11.7978 18.7473 12.2565 18.7259C12.3476 18.7217 12.4345 18.7188 12.5228 18.716V20.015H13.7378V18.6975C14.0682 18.7003 14.4328 18.7103 14.8331 18.7274C14.8815 18.7302 14.9271 18.7316 14.9741 18.7331V20.0164H16.189V18.7601C17.5293 18.7587 18.4551 18.5237 18.9636 18.0522C19.4735 17.5822 19.7284 17.0125 19.7284 16.3431Z" fill="url(#paint14_linear)"/>
<path d="M19.9458 16.3431C19.9458 15.7833 19.6951 15.2634 19.1937 14.782C18.6924 14.3006 17.966 14.0399 17.0131 13.9986C17.815 13.8818 18.426 13.6383 18.8433 13.2708C19.2607 12.9033 19.47 12.4817 19.47 12.0046C19.47 11.4277 19.2065 10.9577 18.681 10.5945C18.1953 10.2598 17.4347 10.0803 16.4078 10.0547V8.81982H15.1928V10.069C15.0917 10.0732 14.992 10.0746 14.8894 10.0803C14.5633 10.096 14.2556 10.1046 13.9565 10.1074V8.81982H12.7416V10.0917C12.6404 10.0875 12.5422 10.086 12.4382 10.0803C12.0038 10.0604 11.5822 10.049 11.172 10.049C11.1463 10.049 11.1235 10.0832 11.1036 10.1501C11.0822 10.2171 11.0723 10.2755 11.0723 10.3253C11.0723 10.3666 11.0822 10.4208 11.1036 10.4877C11.125 10.5546 11.1478 10.5917 11.172 10.6002C11.6648 10.6586 11.9881 10.7626 12.1434 10.9136C12.2972 11.0631 12.3755 11.311 12.3755 11.6528V17.1549C12.3755 17.4982 12.2986 17.7432 12.1434 17.8941C11.9881 18.0451 11.6648 18.1491 11.172 18.2075C11.1463 18.216 11.1235 18.2531 11.1036 18.32C11.0822 18.387 11.0723 18.4411 11.0723 18.4824C11.0723 18.5322 11.0822 18.5906 11.1036 18.6576C11.125 18.7245 11.1478 18.7573 11.172 18.7573C11.5822 18.7573 12.0152 18.7473 12.4752 18.7259C12.5649 18.7217 12.6533 18.7188 12.7416 18.716V20.015H13.9565V18.6975C14.2869 18.7003 14.6516 18.7103 15.0518 18.7274C15.1002 18.7302 15.1458 18.7316 15.1928 18.7331V20.0164H16.4078V18.7601C17.7495 18.7587 18.6738 18.5237 19.1823 18.0522C19.6908 17.5822 19.9458 17.0125 19.9458 16.3431ZM14.8567 11.2412C14.8567 11.0076 14.9108 10.8523 15.0205 10.7768C15.1287 10.7013 15.2712 10.6643 15.4463 10.6643H15.5973C16.0488 10.6643 16.375 10.7811 16.5744 11.0147C16.7752 11.2483 16.8749 11.6328 16.8749 12.1684C16.8749 12.7281 16.771 13.1355 16.5616 13.3905C16.3522 13.6454 16.0061 13.7722 15.5218 13.7722H14.8567V11.2412ZM16.8308 17.6905C16.4761 17.9953 16.0973 18.1477 15.697 18.1477C15.4378 18.1477 15.2327 18.085 15.0831 17.9597C14.9322 17.8343 14.8567 17.6335 14.8567 17.3586V14.3747H15.7967C16.3152 14.3747 16.7054 14.5313 16.9689 14.8447C17.2324 15.158 17.3635 15.6152 17.3635 16.2177C17.3635 16.8943 17.1854 17.3857 16.8308 17.6905Z" fill="url(#paint15_linear)"/>
<path d="M21.2414 22.5547C21.163 22.5547 21.0847 22.522 21.0291 22.4579C20.928 22.3411 20.9408 22.1645 21.0576 22.0619C23.1101 20.2829 24.288 17.7092 24.288 15.0001C24.288 13.4434 23.8977 11.9023 23.1585 10.5435C23.0844 10.4067 23.1343 10.2372 23.271 10.1632C23.4078 10.0891 23.5772 10.139 23.6513 10.2757C24.4347 11.7171 24.8492 13.3508 24.8492 15.0001C24.8492 17.8716 23.6015 20.6006 21.4265 22.4849C21.3724 22.5319 21.3069 22.5547 21.2414 22.5547Z" fill="url(#paint16_linear)"/>
<path d="M21.2414 22.5547C21.163 22.5547 21.0847 22.522 21.0291 22.4579C20.928 22.3411 20.9408 22.1645 21.0576 22.0619C23.1101 20.2829 24.288 17.7092 24.288 15.0001C24.288 13.4434 23.8977 11.9023 23.1585 10.5435C23.0844 10.4067 23.1343 10.2372 23.271 10.1632C23.4078 10.0891 23.5772 10.139 23.6513 10.2757C24.4347 11.7171 24.8492 13.3508 24.8492 15.0001C24.8492 17.8716 23.6015 20.6006 21.4265 22.4849C21.3724 22.5319 21.3069 22.5547 21.2414 22.5547Z" fill="#BD852C"/>
<path d="M8.6449 22.5547C8.57939 22.5547 8.51387 22.5319 8.46117 22.4864C6.28624 20.6006 5.03711 17.873 5.03711 15.0001C5.03711 13.3494 5.45159 11.7157 6.23496 10.2757C6.30902 10.139 6.47852 10.0891 6.61525 10.1632C6.75199 10.2372 6.80184 10.4067 6.72777 10.5435C5.98855 11.9023 5.59829 13.4434 5.59829 15.0001C5.59829 17.7092 6.77478 20.2829 8.82864 22.0619C8.94543 22.163 8.95825 22.3411 8.85713 22.4579C8.80158 22.522 8.72324 22.5547 8.6449 22.5547Z" fill="url(#paint17_linear)"/>
<path d="M8.6449 22.5547C8.57939 22.5547 8.51387 22.5319 8.46117 22.4864C6.28624 20.6006 5.03711 17.873 5.03711 15.0001C5.03711 13.3494 5.45159 11.7157 6.23496 10.2757C6.30902 10.139 6.47852 10.0891 6.61525 10.1632C6.75199 10.2372 6.80184 10.4067 6.72777 10.5435C5.98855 11.9023 5.59829 13.4434 5.59829 15.0001C5.59829 17.7092 6.77478 20.2829 8.82864 22.0619C8.94543 22.163 8.95825 22.3411 8.85713 22.4579C8.80158 22.522 8.72324 22.5547 8.6449 22.5547Z" fill="#BD852C"/>
</g>
<defs>
<filter id="filter0_d" x="0" y="0" width="30.0014" height="30" filterUnits="userSpaceOnUse" color-interpolation-filters="sRGB">
<feFlood flood-opacity="0" result="BackgroundImageFix"/>
<feColorMatrix in="SourceAlpha" type="matrix" values="0 0 0 0 0 0 0 0 0 0 0 0 0 0 0 0 0 0 127 0"/>
<feOffset/>
<feGaussianBlur stdDeviation="2"/>
<feColorMatrix type="matrix" values="0 0 0 0 0 0 0 0 0 0 0 0 0 0 0 0 0 0 0.25 0"/>
<feBlend mode="normal" in2="BackgroundImageFix" result="effect1_dropShadow"/>
<feBlend mode="normal" in="SourceGraphic" in2="effect1_dropShadow" result="shape"/>
</filter>
<linearGradient id="paint0_linear" x1="32.7501" y1="30.2916" x2="-15.8301" y2="-11.5622" gradientUnits="userSpaceOnUse">
<stop stop-color="#FCCF61"/>
<stop offset="0.0806" stop-color="white"/>
<stop offset="0.1935" stop-color="#F4D271"/>
<stop offset="0.2642" stop-color="#D8A73B"/>
<stop offset="0.3223" stop-color="#BF8729"/>
<stop offset="0.3617" stop-color="#B2761F"/>
<stop offset="0.378" stop-color="#B1741E"/>
<stop offset="0.4708" stop-color="#AD701D"/>
<stop offset="0.5126" stop-color="#B77D26"/>
<stop offset="0.5587" stop-color="#C69133"/>
<stop offset="0.6761" stop-color="#F4D15E"/>
<stop offset="0.6997" stop-color="#F1CE5C"/>
<stop offset="0.719" stop-color="#E9C456"/>
<stop offset="0.7367" stop-color="#DBB34B"/>
<stop offset="0.7536" stop-color="#C89A3D"/>
<stop offset="0.7696" stop-color="#AF7C2A"/>
<stop offset="0.7852" stop-color="#905613"/>
<stop offset="0.8061" stop-color="#965E18"/>
<stop offset="0.8386" stop-color="#A87425"/>
<stop offset="0.8785" stop-color="#C5973B"/>
<stop offset="0.9239" stop-color="#EDC95A"/>
<stop offset="0.9377" stop-color="#FAD964"/>
</linearGradient>
<linearGradient id="paint1_linear" x1="0.694189" y1="-3.23968" x2="24.1434" y2="26.6557" gradientUnits="userSpaceOnUse">
<stop stop-color="#D8A73B"/>
<stop offset="0.0841" stop-color="#BF8729"/>
<stop offset="0.1413" stop-color="#B2761F"/>
<stop offset="0.1528" stop-color="#B1741E"/>
<stop offset="0.2181" stop-color="#AD701D"/>
<stop offset="0.3007" stop-color="#B77D26"/>
<stop offset="0.3921" stop-color="#C69133"/>
<stop offset="0.6615" stop-color="#905613"/>
<stop offset="0.8817" stop-color="#905613"/>
<stop offset="1" stop-color="#3F1400"/>
</linearGradient>
<linearGradient id="paint2_linear" x1="16.6789" y1="27.3659" x2="13.7024" y2="5.92306" gradientUnits="userSpaceOnUse">
<stop stop-color="#D8A73B"/>
<stop offset="0.0841" stop-color="#BF8729"/>
<stop offset="0.1413" stop-color="#B2761F"/>
<stop offset="0.1528" stop-color="#B1741E"/>
<stop offset="0.2181" stop-color="#AD701D"/>
<stop offset="0.3007" stop-color="#B77D26"/>
<stop offset="0.3921" stop-color="#C69133"/>
<stop offset="0.6615" stop-color="#905613"/>
<stop offset="0.8817" stop-color="#905613"/>
<stop offset="1" stop-color="#3F1400"/>
</linearGradient>
<linearGradient id="paint3_linear" x1="4.66268" y1="3.31273" x2="21.8527" y2="22.7449" gradientUnits="userSpaceOnUse">
<stop stop-color="#FCCF61"/>
<stop offset="0.3423" stop-color="#D8A73B"/>
<stop offset="0.4903" stop-color="#BA8126"/>
<stop offset="0.5759" stop-color="#AD701D"/>
<stop offset="0.6724" stop-color="#C28D31"/>
<stop offset="0.8645" stop-color="#F4D15E"/>
<stop offset="0.8846" stop-color="#EFCB5A"/>
<stop offset="0.9114" stop-color="#E1BA50"/>
<stop offset="0.942" stop-color="#CB9E3F"/>
<stop offset="0.9752" stop-color="#AB7828"/>
<stop offset="1" stop-color="#905613"/>
</linearGradient>
<linearGradient id="paint4_linear" x1="13.7066" y1="2.03259" x2="13.7066" y2="29.5855" gradientUnits="userSpaceOnUse">
<stop stop-color="#FCCF61"/>
<stop offset="0.2817" stop-color="#905613"/>
<stop offset="0.3203" stop-color="#965E18"/>
<stop offset="0.3803" stop-color="#A87425"/>
<stop offset="0.4539" stop-color="#C5973B"/>
<stop offset="0.5378" stop-color="#EDC95A"/>
<stop offset="0.5633" stop-color="#FAD964"/>
<stop offset="0.8598" stop-color="#9A621A"/>
</linearGradient>
<linearGradient id="paint5_linear" x1="15.623" y1="2.03476" x2="15.623" y2="29.585" gradientUnits="userSpaceOnUse">
<stop stop-color="#FCCF61"/>
<stop offset="0.2817" stop-color="#905613"/>
<stop offset="0.3203" stop-color="#965E18"/>
<stop offset="0.3803" stop-color="#A87425"/>
<stop offset="0.4539" stop-color="#C5973B"/>
<stop offset="0.5378" stop-color="#EDC95A"/>
<stop offset="0.5633" stop-color="#FAD964"/>
<stop offset="0.8598" stop-color="#9A621A"/>
</linearGradient>
<linearGradient id="paint6_linear" x1="17.7692" y1="2.02944" x2="17.7692" y2="29.5863" gradientUnits="userSpaceOnUse">
<stop stop-color="#FCCF61"/>
<stop offset="0.2817" stop-color="#905613"/>
<stop offset="0.3203" stop-color="#965E18"/>
<stop offset="0.3803" stop-color="#A87425"/>
<stop offset="0.4539" stop-color="#C5973B"/>
<stop offset="0.5378" stop-color="#EDC95A"/>
<stop offset="0.5633" stop-color="#FAD964"/>
<stop offset="0.8598" stop-color="#9A621A"/>
</linearGradient>
<linearGradient id="paint7_linear" x1="10.2523" y1="2.03237" x2="10.2523" y2="29.5844" gradientUnits="userSpaceOnUse">
<stop stop-color="#FCCF61"/>
<stop offset="0.2817" stop-color="#905613"/>
<stop offset="0.3203" stop-color="#965E18"/>
<stop offset="0.3803" stop-color="#A87425"/>
<stop offset="0.4539" stop-color="#C5973B"/>
<stop offset="0.5378" stop-color="#EDC95A"/>
<stop offset="0.5633" stop-color="#FAD964"/>
<stop offset="0.8598" stop-color="#9A621A"/>
<stop offset="0.9728" stop-color="#AC5218"/>
<stop offset="1" stop-color="#B14E18"/>
</linearGradient>
<linearGradient id="paint8_linear" x1="11.4866" y1="2.0324" x2="11.4866" y2="29.5831" gradientUnits="userSpaceOnUse">
<stop stop-color="#FCCF61"/>
<stop offset="0.2817" stop-color="#905613"/>
<stop offset="0.3203" stop-color="#965E18"/>
<stop offset="0.3803" stop-color="#A87425"/>
<stop offset="0.4539" stop-color="#C5973B"/>
<stop offset="0.5378" stop-color="#EDC95A"/>
<stop offset="0.5633" stop-color="#FAD964"/>
<stop offset="0.8598" stop-color="#9A621A"/>
<stop offset="0.9728" stop-color="#AC5218"/>
<stop offset="1" stop-color="#B14E18"/>
</linearGradient>
<linearGradient id="paint9_linear" x1="12.5755" y1="2.03294" x2="12.5755" y2="29.5834" gradientUnits="userSpaceOnUse">
<stop stop-color="#FCCF61"/>
<stop offset="0.2817" stop-color="#905613"/>
<stop offset="0.3203" stop-color="#965E18"/>
<stop offset="0.3803" stop-color="#A87425"/>
<stop offset="0.4539" stop-color="#C5973B"/>
<stop offset="0.5378" stop-color="#EDC95A"/>
<stop offset="0.5633" stop-color="#FAD964"/>
<stop offset="0.8598" stop-color="#9A621A"/>
<stop offset="0.9728" stop-color="#AC5218"/>
<stop offset="1" stop-color="#B14E18"/>
</linearGradient>
<linearGradient id="paint10_linear" x1="14.6461" y1="2.03229" x2="14.6461" y2="29.5866" gradientUnits="userSpaceOnUse">
<stop stop-color="#FCCF61"/>
<stop offset="0.2817" stop-color="#905613"/>
<stop offset="0.3203" stop-color="#965E18"/>
<stop offset="0.3803" stop-color="#A87425"/>
<stop offset="0.4539" stop-color="#C5973B"/>
<stop offset="0.5378" stop-color="#EDC95A"/>
<stop offset="0.5633" stop-color="#FAD964"/>
<stop offset="0.8598" stop-color="#9A621A"/>
<stop offset="0.9728" stop-color="#AC5218"/>
<stop offset="1" stop-color="#B14E18"/>
</linearGradient>
<linearGradient id="paint11_linear" x1="16.8011" y1="2.03272" x2="16.8011" y2="29.5856" gradientUnits="userSpaceOnUse">
<stop stop-color="#FCCF61"/>
<stop offset="0.2817" stop-color="#905613"/>
<stop offset="0.3203" stop-color="#965E18"/>
<stop offset="0.3803" stop-color="#A87425"/>
<stop offset="0.4539" stop-color="#C5973B"/>
<stop offset="0.5378" stop-color="#EDC95A"/>
<stop offset="0.5633" stop-color="#FAD964"/>
<stop offset="0.8598" stop-color="#9A621A"/>
<stop offset="0.9728" stop-color="#AC5218"/>
<stop offset="1" stop-color="#B14E18"/>
</linearGradient>
<linearGradient id="paint12_linear" x1="18.3109" y1="2.0329" x2="18.3109" y2="29.5809" gradientUnits="userSpaceOnUse">
<stop stop-color="#FCCF61"/>
<stop offset="0.2817" stop-color="#905613"/>
<stop offset="0.3203" stop-color="#965E18"/>
<stop offset="0.3803" stop-color="#A87425"/>
<stop offset="0.4539" stop-color="#C5973B"/>
<stop offset="0.5378" stop-color="#EDC95A"/>
<stop offset="0.5633" stop-color="#FAD964"/>
<stop offset="0.8598" stop-color="#9A621A"/>
<stop offset="0.9728" stop-color="#AC5218"/>
<stop offset="1" stop-color="#B14E18"/>
</linearGradient>
<linearGradient id="paint13_linear" x1="19.6015" y1="2.03204" x2="19.6015" y2="29.5883" gradientUnits="userSpaceOnUse">
<stop stop-color="#FCCF61"/>
<stop offset="0.2817" stop-color="#905613"/>
<stop offset="0.3203" stop-color="#965E18"/>
<stop offset="0.3803" stop-color="#A87425"/>
<stop offset="0.4539" stop-color="#C5973B"/>
<stop offset="0.5378" stop-color="#EDC95A"/>
<stop offset="0.5633" stop-color="#FAD964"/>
<stop offset="0.8598" stop-color="#9A621A"/>
<stop offset="0.9728" stop-color="#AC5218"/>
<stop offset="1" stop-color="#B14E18"/>
</linearGradient>
<linearGradient id="paint14_linear" x1="5.85812" y1="4.00511" x2="18.2367" y2="18.8595" gradientUnits="userSpaceOnUse">
<stop stop-color="#FCCE5D"/>
<stop offset="0.0806" stop-color="white"/>
<stop offset="0.1935" stop-color="#EBCD76"/>
<stop offset="0.2642" stop-color="#CDA240"/>
<stop offset="0.3216" stop-color="#B4832E"/>
<stop offset="0.3617" stop-color="#A77224"/>
<stop offset="0.378" stop-color="#A67023"/>
<stop offset="0.4708" stop-color="#A26C21"/>
<stop offset="0.5136" stop-color="#AD792A"/>
<stop offset="0.5587" stop-color="#BC8C38"/>
<stop offset="0.6761" stop-color="#EACB64"/>
<stop offset="0.6999" stop-color="#E7C862"/>
<stop offset="0.7193" stop-color="#DFBE5B"/>
<stop offset="0.7372" stop-color="#D1AD50"/>
<stop offset="0.7541" stop-color="#BD9441"/>
<stop offset="0.7703" stop-color="#A4762D"/>
<stop offset="0.7852" stop-color="#865216"/>
<stop offset="0.8064" stop-color="#8D5A1B"/>
<stop offset="0.8392" stop-color="#9E7029"/>
<stop offset="0.8795" stop-color="#BC9341"/>
<stop offset="0.9255" stop-color="#E4C561"/>
<stop offset="0.9377" stop-color="#F0D36A"/>
</linearGradient>
<linearGradient id="paint15_linear" x1="7.10348" y1="4.66447" x2="21.2105" y2="22.6018" gradientUnits="userSpaceOnUse">
<stop stop-color="#FCCE5D"/>
<stop offset="0.0806" stop-color="white"/>
<stop offset="0.1935" stop-color="#EBCD76"/>
<stop offset="0.2642" stop-color="#CDA240"/>
<stop offset="0.3216" stop-color="#B4832E"/>
<stop offset="0.3617" stop-color="#A77224"/>
<stop offset="0.378" stop-color="#A67023"/>
<stop offset="0.4708" stop-color="#A26C21"/>
<stop offset="0.5136" stop-color="#AD792A"/>
<stop offset="0.5587" stop-color="#BC8C38"/>
<stop offset="0.6761" stop-color="#EACB64"/>
<stop offset="0.6999" stop-color="#E7C862"/>
<stop offset="0.7193" stop-color="#DFBE5B"/>
<stop offset="0.7372" stop-color="#D1AD50"/>
<stop offset="0.7541" stop-color="#BD9441"/>
<stop offset="0.7703" stop-color="#A4762D"/>
<stop offset="0.7852" stop-color="#865216"/>
<stop offset="0.8064" stop-color="#8D5A1B"/>
<stop offset="0.8392" stop-color="#9E7029"/>
<stop offset="0.8795" stop-color="#BC9341"/>
<stop offset="0.9255" stop-color="#E4C561"/>
<stop offset="0.9377" stop-color="#F0D36A"/>
</linearGradient>
<linearGradient id="paint16_linear" x1="32.3785" y1="29.3251" x2="18.4119" y2="9.33279" gradientUnits="userSpaceOnUse">
<stop stop-color="#FCCF61"/>
<stop offset="0.2817" stop-color="#905613"/>
<stop offset="0.3717" stop-color="#965E18"/>
<stop offset="0.5113" stop-color="#A87425"/>
<stop offset="0.6829" stop-color="#C5973B"/>
<stop offset="0.8784" stop-color="#EDC95A"/>
<stop offset="0.9377" stop-color="#FAD964"/>
</linearGradient>
<linearGradient id="paint17_linear" x1="16.4547" y1="29.3251" x2="2.48812" y2="9.33278" gradientUnits="userSpaceOnUse">
<stop stop-color="#FCCF61"/>
<stop offset="0.2817" stop-color="#905613"/>
<stop offset="0.3717" stop-color="#965E18"/>
<stop offset="0.5113" stop-color="#A87425"/>
<stop offset="0.6829" stop-color="#C5973B"/>
<stop offset="0.8784" stop-color="#EDC95A"/>
<stop offset="0.9377" stop-color="#FAD964"/>
</linearGradient>
</defs>
</svg>
